<svg width="16" height="16" viewBox="0 0 16 16" fill="none" xmlns="http://www.w3.org/2000/svg">
<path fill-rule="evenodd" clip-rule="evenodd" d="M8 0C3.582 0 0 3.582 0 8C0 12.4187 3.582 16 8 16C12.418 16 16 12.4187 16 8C16 3.582 12.418 0 8 0ZM13.3309 5.81193C12.9923 6.31993 13.6269 7.37793 13.0776 6.99659C12.5269 6.61593 12.3156 5.76993 11.8083 4.83859C11.2996 3.90792 9.90427 4.45859 10.3696 4.71259C10.8349 4.96659 10.6236 5.21993 9.6076 5.77059C8.59294 6.31993 7.28094 4.20459 6.94228 4.07792C6.60428 3.95059 7.87361 6.19259 8.12694 6.57326C8.38094 6.95393 9.39494 6.10793 9.43827 6.53059C9.48094 6.95393 8.4656 8.1806 7.70427 8.60326C6.94228 9.0266 7.95827 10.5073 7.61961 10.4653C7.28027 10.4233 6.90028 11.1419 6.77294 11.8186C6.64694 12.4959 6.09561 13.1726 5.25028 12.8766C4.40295 12.5806 3.64228 11.8186 3.89628 10.6766C4.15095 9.53393 3.26229 8.26526 3.17695 7.75726C3.09229 7.24926 2.54295 7.33393 1.78096 7.29193C1.63562 7.28393 1.51162 7.20726 1.40162 7.09926C1.84296 3.84859 4.62962 1.33325 8.00027 1.33325C10.6056 1.33325 12.8609 2.83925 13.9569 5.02326C13.7596 5.08393 13.5309 5.51259 13.3309 5.81193ZM8.2111 10.8047C8.80376 10.5501 9.14175 9.57742 9.18375 10.1274C9.22575 10.6774 9.18375 12.2847 8.2531 12.0314C7.90511 11.936 7.61912 11.0587 8.2111 10.8047Z" fill="white"/>
</svg>
