<svg width="121" height="56" viewBox="0 0 121 56" fill="none" xmlns="http://www.w3.org/2000/svg">
<path d="M29.0196 7.51973C29.0196 11.8182 25.5429 14.9562 21.0704 14.9562C19.4218 14.9562 17.9527 14.5967 17.0713 13.9592C19.7482 12.8152 21.1357 10.4453 21.1357 7.4707C21.1357 3.98944 19.4218 2.01183 16.9243 2.01183H16.7448V19.4999C16.7448 22.3927 17.8384 24.2723 19.8135 25.6615H7C8.46907 24.1906 9.0567 22.3927 9.0567 19.4999V6.16318C9.0567 3.22128 8.46907 1.43979 7 0.00152588H18.9811C25.4286 0.00152588 29.0196 2.82902 29.0196 7.51973Z" fill="black"/>
<path d="M49.163 22.2945C48.7223 24.599 46.8124 26.217 44.2171 26.217C42.0135 26.217 40.3323 24.8932 39.8262 23.3895C38.7326 25.3671 36.6759 26.217 34.4723 26.217C31.4362 26.217 29.3796 24.2067 29.3796 21.4446C29.3796 18.2249 31.6811 15.9858 37.0024 14.6946L39.4508 14.1062V10.821C39.4508 8.76175 38.749 7.92818 37.5084 7.92818C36.3332 7.92818 35.5659 8.69638 35.5659 9.75874C35.5659 10.6739 36.0067 11.2624 36.7739 11.9978C36.7739 13.1745 34.9457 14.384 33.0359 14.384C31.1751 14.384 29.8529 12.9457 29.8529 11.197C29.8529 8.07527 33.2971 5.88519 38.3572 5.88519C43.6295 5.88519 46.4207 8.1243 46.4207 13.1092V20.987C46.4207 21.984 47.0083 22.6377 47.9224 22.6377C48.4611 22.6213 48.8692 22.5233 49.163 22.2945ZM39.4508 21.7551V15.8387L38.9775 15.9858C37.4104 16.4597 36.3332 17.4894 36.3332 19.5487C36.3332 21.3138 37.035 22.3762 38.1613 22.3762C38.749 22.3762 39.2386 22.1964 39.4508 21.7551Z" fill="black"/>
<path d="M69.4844 15.1843C69.4844 22.5227 65.975 26.2165 60.4741 26.2165C59.1192 26.2165 58.1725 25.8569 57.5033 25.4483V27.3115C57.5033 30.139 57.9767 30.9072 60.1476 32.9992H48.493C49.9294 31.3157 50.5497 30.2044 50.5497 27.5403V14.2364C50.5497 12.2588 50.2885 11.2291 49.0807 10.085L48.2319 9.31683L57.3074 5.86829V8.76118C58.4011 6.99602 60.2782 5.86829 62.5471 5.86829C67.5093 5.86829 69.4844 10.4446 69.4844 15.1843ZM61.9758 16.214C61.9758 11.9155 61.2086 9.72548 59.1846 9.72548C58.597 9.72548 58.0093 9.98697 57.5033 10.4282V23.5524C57.8297 23.8466 58.2052 23.961 58.597 23.961C60.2455 23.9446 61.9758 22.1959 61.9758 16.214Z" fill="black"/>
<path d="M88.3038 19.4338C87.1283 24.5331 84.3047 26.2165 80.2077 26.2165C75.523 26.2165 71.1321 22.8006 71.1321 16.3938C71.1321 10.2321 75.017 5.86829 80.1097 5.86829C83.4396 5.86829 88.1242 7.5844 88.1242 14.8575H77.0573C77.8246 18.7473 80.3546 20.7576 83.864 20.7576C85.676 20.7576 86.9166 20.4308 88.3038 19.4338ZM76.8452 12.3242V12.7981H81.6768C81.6768 9.13706 80.877 7.99298 79.3263 7.99298C77.7593 7.99298 76.8452 9.5784 76.8452 12.3242Z" fill="black"/>
<path d="M100.759 25.6771H89.1037C90.5403 23.9937 91.1606 22.8824 91.1606 20.2182V14.269C91.1606 12.1771 90.8665 11.1964 89.4793 9.90525L88.6794 9.16975L97.4779 5.86829V10.4446C98.3263 7.79688 99.632 5.86829 101.803 5.86829C103.566 5.86829 104.692 7.11043 104.692 8.94095C104.692 10.8859 103.485 12.2424 101.803 12.2424C101.444 11.3925 100.563 11.0003 99.7465 11.0003C99.094 11.0003 98.4573 11.1801 98.1303 11.5069V19.9731C98.1146 22.8169 98.6039 23.5851 100.759 25.6771Z" fill="black"/>
<path d="M109.137 2.39788H110.828C111.237 2.39788 111.566 2.44188 111.816 2.52987C112.064 2.6032 112.255 2.70587 112.387 2.83786C112.532 2.95519 112.628 3.10185 112.672 3.27784C112.73 3.43917 112.76 3.60782 112.76 3.78381C112.76 4.10646 112.701 4.37045 112.584 4.57577C112.481 4.76643 112.291 4.92043 112.013 5.03775L112.979 6.92965H111.838L111.003 5.25774H110.169V6.92965H109.137V2.39788ZM110.959 4.37778C111.34 4.37778 111.566 4.31912 111.64 4.2018C111.713 4.08447 111.75 3.94514 111.75 3.78381C111.75 3.65182 111.698 3.5345 111.596 3.43183C111.493 3.3145 111.237 3.25584 110.828 3.25584H110.169V4.37778H110.959ZM110.893 9.50353C110.22 9.50353 109.598 9.39353 109.027 9.17353C108.471 8.95353 107.988 8.63822 107.578 8.22761C107.183 7.81695 106.875 7.31831 106.656 6.73167C106.436 6.14503 106.326 5.48506 106.326 4.75176C106.326 4.01847 106.443 3.3585 106.678 2.77187C106.912 2.18523 107.234 1.68658 107.644 1.27594C108.068 0.865291 108.551 0.549973 109.093 0.329984C109.649 0.109994 110.249 0 110.893 0C111.581 0 112.203 0.109994 112.76 0.329984C113.331 0.549973 113.814 0.865291 114.209 1.27594C114.604 1.68658 114.912 2.18523 115.131 2.77187C115.35 3.3585 115.46 4.01847 115.46 4.75176C115.46 5.48506 115.343 6.14503 115.109 6.73167C114.875 7.31831 114.545 7.81695 114.121 8.22761C113.711 8.63822 113.228 8.95353 112.672 9.17353C112.115 9.39353 111.522 9.50353 110.893 9.50353ZM110.871 8.46961C111.882 8.46961 112.701 8.14691 113.331 7.50163C113.974 6.85633 114.297 5.93971 114.297 4.75176C114.297 3.56383 113.974 2.6472 113.331 2.0019C112.701 1.3566 111.882 1.03394 110.871 1.03394C109.861 1.03394 109.042 1.3566 108.412 2.0019C107.798 2.6472 107.49 3.56383 107.49 4.75176C107.49 5.93971 107.798 6.85633 108.412 7.50163C109.042 8.14691 109.861 8.46961 110.871 8.46961Z" fill="black"/>
<path d="M0 38.5915H1.7109V43.7491C2.13026 43.212 2.61539 42.7966 3.1663 42.5028C3.7172 42.2091 4.36641 42.0621 5.11393 42.0618C5.83486 42.0618 6.46746 42.1899 7.01171 42.4461C7.54512 42.6938 8.01027 43.0619 8.36856 43.5199C8.72919 43.98 8.99799 44.5264 9.17498 45.1591C9.35196 45.7917 9.44046 46.4916 9.44046 47.2587C9.44046 48.0768 9.33558 48.8152 9.12582 49.4741C8.91607 50.133 8.61465 50.6922 8.22156 51.1517C7.83408 51.6066 7.34581 51.9698 6.79353 52.214C6.23706 52.4633 5.61104 52.5879 4.91546 52.5879C4.32288 52.5874 3.7369 52.4666 3.19481 52.2332C2.63804 51.9969 2.1373 51.591 1.69259 51.0156V52.2816H0V38.5915ZM1.69259 47.603C1.69259 48.2423 1.76786 48.7887 1.91842 49.2422C2.06897 49.6957 2.27556 50.0696 2.53818 50.3639C2.79155 50.6526 3.11593 50.8739 3.48093 51.007C3.84774 51.1413 4.24754 51.2085 4.68035 51.2085C5.08061 51.2121 5.47784 51.1405 5.85032 50.9975C6.21079 50.8572 6.52225 50.6303 6.78472 50.3169C7.04719 50.0034 7.25362 49.5975 7.40402 49.0993C7.55458 48.6009 7.63001 47.9938 7.63032 47.2779C7.63032 46.5491 7.54832 45.9388 7.38431 45.4468C7.22031 44.9549 7.00731 44.5619 6.7453 44.2677C6.48253 43.9738 6.1842 43.7628 5.85032 43.6347C5.52169 43.508 5.17147 43.443 4.81807 43.443C4.39452 43.4391 3.97408 43.5139 3.57924 43.6634C3.20335 43.8075 2.86439 44.0302 2.58618 44.3156C2.30408 44.602 2.08443 44.9659 1.92723 45.4075C1.77003 45.8491 1.69181 46.3572 1.69259 46.9318V47.603Z" fill="#161616"/>
<path d="M19.8705 42.3685L14.01 56H12.2395L14.0684 52.0311L9.86011 42.3685H11.8462L14.914 50.0772L17.9817 42.3685H19.8705Z" fill="#161616"/>
<path d="M24.4316 38.5915H26.4769L29.4072 49.8462L32.4552 38.6489H34.4028L37.4314 49.8462L40.341 38.5915H42.2683L38.3744 52.2811H36.4669L33.3402 40.8343L30.2722 52.2811H28.4238L24.4316 38.5915Z" fill="#161616"/>
<path d="M51.4931 49.5012C51.3231 50.4598 50.8871 51.214 50.1854 51.7636C49.4836 52.3132 48.4774 52.5881 47.1668 52.5881C45.6195 52.5881 44.433 52.1311 43.6072 51.2172C42.7815 50.3033 42.3686 49.0283 42.3684 47.3923C42.3684 46.536 42.4864 45.7753 42.7225 45.1104C42.9585 44.4455 43.2895 43.8895 43.7155 43.4425C44.1405 42.9961 44.6607 42.646 45.2395 42.4169C45.8296 42.1804 46.472 42.0622 47.1668 42.0622C47.9534 42.0622 48.6286 42.1837 49.1923 42.4266C49.7561 42.6696 50.2182 43.005 50.5786 43.433C50.9391 43.8613 51.2079 44.3695 51.385 44.9574C51.5622 45.5453 51.6507 46.1905 51.6505 46.8929V47.7363H44.1C44.1 48.2347 44.1687 48.6981 44.3063 49.1264C44.4439 49.5547 44.6406 49.9254 44.8964 50.2386C45.1524 50.5523 45.4786 50.8047 45.85 50.9767C46.2303 51.1559 46.6695 51.2454 47.1677 51.2453C48.0199 51.2453 48.6426 51.0886 49.0358 50.7753C49.429 50.462 49.6979 50.037 49.8422 49.5003L51.4931 49.5012ZM49.9396 46.491C49.9396 46.0182 49.8872 45.59 49.7824 45.2065C49.6776 44.8229 49.5137 44.4937 49.2906 44.2188C49.0676 43.9442 48.7791 43.7302 48.4253 43.5766C48.0715 43.423 47.6454 43.3463 47.1471 43.3465C46.2427 43.3465 45.538 43.6149 45.0332 44.1519C44.5284 44.6889 44.2301 45.4686 44.1384 46.491H49.9396Z" fill="#161616"/>
<path d="M54.805 40.1636H50.1641V38.5915H61.2748V40.1636H56.6339V52.2804H54.805V40.1636Z" fill="#161616"/>
<path d="M60.023 42.3686H61.7142V43.9024C62.0941 43.3531 62.5399 42.9311 63.0513 42.6364C63.5628 42.3418 64.1069 42.1948 64.6836 42.1954C65.0376 42.1954 65.339 42.221 65.5879 42.2723L65.3713 43.8253C65.2404 43.8 65.109 43.7774 64.9772 43.7575C64.8339 43.7375 64.6893 43.7279 64.5445 43.7288C64.2164 43.7311 63.8909 43.7862 63.5811 43.8918C63.2531 44.0006 62.945 44.1827 62.6567 44.4382C62.3752 44.6725 62.1445 44.9593 61.9783 45.2818C61.8144 45.6015 61.7325 45.9721 61.7325 46.3938V52.2811H60.0216L60.023 42.3686Z" fill="#161616"/>
<path d="M75.6197 42.3687V52.2812H73.9482V50.8625C73.5285 51.4123 73.0434 51.8373 72.4928 52.1375C71.9422 52.4377 71.293 52.5879 70.5452 52.588C69.5488 52.588 68.7327 52.3579 68.0969 51.8978C67.4612 51.4377 66.9892 50.8114 66.681 50.0188C66.3729 49.2265 66.2189 48.3449 66.2189 47.3739C66.2189 45.7248 66.6221 44.4274 67.4285 43.4816C68.2349 42.5357 69.3393 42.0628 70.7418 42.0628C71.2792 42.0628 71.8299 42.1746 72.3938 42.3983C72.9577 42.6219 73.4755 43.0278 73.9473 43.6158V42.3687H75.6197ZM73.9677 47.0285C73.9677 46.236 73.8792 45.6193 73.7022 45.1782C73.5252 44.737 73.2337 44.363 72.8276 44.056C72.5392 43.8259 72.2475 43.666 71.9526 43.5765C71.6367 43.4842 71.3084 43.439 70.9787 43.4425C70.4278 43.4425 69.9263 43.5706 69.4742 43.8268C69.0221 44.083 68.6648 44.4946 68.4025 45.0617C68.1398 45.6305 68.0084 46.3878 68.0084 47.3336C68.0084 48.3053 68.1459 49.0722 68.4211 49.6345C68.6962 50.1968 69.0503 50.5962 69.4832 50.8326C69.9161 51.0692 70.3683 51.1875 70.8401 51.1873C71.22 51.1873 71.5609 51.1458 71.8626 51.0628C72.1643 50.9797 72.4657 50.8231 72.7669 50.593C73.1709 50.3017 73.484 49.9067 73.6711 49.4521C73.8677 48.9858 73.966 48.401 73.966 47.6978L73.9677 47.0285Z" fill="#161616"/>
<path d="M77.8785 42.3687H79.57V43.8833C80.0675 43.2315 80.6181 42.7653 81.2217 42.4847C81.8167 42.2053 82.4689 42.0611 83.1293 42.0628C84.2828 42.0628 85.1383 42.3696 85.6955 42.9831C86.2527 43.5967 86.5314 44.4978 86.5314 45.6866V52.2812H84.8205V46.0112C84.8205 45.091 84.65 44.4423 84.3092 44.0651C83.9684 43.6878 83.444 43.4994 82.736 43.4999C82.3507 43.5008 81.9683 43.5656 81.6052 43.6916C81.2263 43.8227 80.8809 44.032 80.5925 44.3051C80.2646 44.5863 80.0155 44.8835 79.8452 45.1967C79.6748 45.5099 79.5898 45.9157 79.5901 46.4143V52.2812H77.879L77.8785 42.3687Z" fill="#161616"/>
<path d="M89.8101 49.386C89.9279 50.0763 90.2261 50.5585 90.7046 50.8328C91.1832 51.1071 91.8355 51.2445 92.6615 51.2452C93.5271 51.2452 94.14 51.1013 94.5002 50.8136C94.8603 50.5259 95.0403 50.1458 95.04 49.6733C95.0406 49.489 95.0172 49.3053 94.9704 49.1267C94.9239 48.9537 94.8324 48.7952 94.7047 48.6667C94.5735 48.5324 94.39 48.4141 94.1542 48.3118C93.9185 48.2094 93.6104 48.1266 93.2298 48.0631L91.9314 47.8714C91.3545 47.782 90.8498 47.667 90.4173 47.5262C89.9848 47.3854 89.6177 47.2033 89.316 46.9798C89.023 46.7651 88.7906 46.4814 88.6406 46.1554C88.4899 45.8294 88.4145 45.4363 88.4145 44.9762C88.4145 44.5161 88.5161 44.1071 88.7192 43.7492C88.9264 43.3868 89.2157 43.0753 89.565 42.8384C89.9253 42.5891 90.3513 42.3973 90.843 42.263C91.3347 42.1288 91.869 42.0617 92.4459 42.0619C93.18 42.0619 93.7929 42.1322 94.2846 42.2728C94.7763 42.4134 95.1794 42.6051 95.4939 42.8479C95.799 43.0795 96.0476 43.3742 96.2218 43.7107C96.3935 44.0466 96.5258 44.4004 96.6159 44.7653L95.0625 45.014C94.9809 44.7683 94.8755 44.5307 94.7478 44.3044C94.6316 44.1025 94.4699 43.9291 94.2748 43.7971C94.0782 43.6628 93.8386 43.5606 93.556 43.4903C93.2735 43.4201 92.9228 43.3849 92.5039 43.3848C92.0321 43.3848 91.6388 43.4264 91.3239 43.5096C91.009 43.5927 90.7567 43.7045 90.5669 43.8448C90.3765 43.9859 90.2421 44.1425 90.1637 44.3148C90.0852 44.4867 90.0449 44.673 90.0457 44.8612C90.0428 45.0462 90.0694 45.2305 90.1245 45.4076C90.1801 45.5728 90.2824 45.7193 90.4197 45.8303C90.5637 45.9519 90.7603 46.0574 91.0095 46.1468C91.2587 46.2362 91.5799 46.3128 91.9731 46.3767L93.4482 46.6068C94.6409 46.7975 95.4961 47.1295 96.0138 47.6031C96.5314 48.0766 96.7904 48.7668 96.7905 49.6738C96.7905 50.0958 96.7055 50.4824 96.5355 50.8337C96.3654 51.185 96.1098 51.4915 95.7687 51.7531C95.4274 52.015 95.0013 52.2196 94.4904 52.3666C93.9796 52.5137 93.383 52.5872 92.7007 52.5871C92.0844 52.5871 91.5109 52.5296 90.9801 52.4146C90.4493 52.2996 89.9806 52.1174 89.5741 51.8682C89.1694 51.6212 88.8321 51.2824 88.5907 50.8807C88.3416 50.4719 88.1973 49.9733 88.1581 49.3851L89.8101 49.386Z" fill="#161616"/>
<path d="M99.3432 41.5249C99.3432 40.8092 99.4808 40.2244 99.7561 39.7705C100.031 39.3165 100.395 38.9811 100.847 38.764C101.3 38.5467 101.808 38.4381 102.372 38.4381C102.661 38.4374 102.95 38.4534 103.237 38.486C103.53 38.5218 103.82 38.5828 104.102 38.6682L103.827 39.9719C103.632 39.911 103.431 39.8693 103.227 39.8473C103.041 39.8283 102.855 39.8187 102.668 39.8184C102.209 39.8184 101.815 39.9367 101.488 40.1733C101.16 40.4099 100.996 40.8413 100.995 41.4673V42.3684H103.572V43.6913H100.995V52.2816H99.284V43.6913H97.6912V42.4253H98.5762C98.917 42.4253 99.1301 42.3678 99.2154 42.2526C99.3007 42.1375 99.3433 41.8949 99.3432 41.5249Z" fill="#161616"/>
<path d="M113.408 49.5012C113.238 50.4598 112.802 51.214 112.1 51.7636C111.398 52.3132 110.392 52.5881 109.082 52.5881C107.535 52.5881 106.348 52.1311 105.522 51.2172C104.696 50.3033 104.283 49.0283 104.283 47.3923C104.283 46.536 104.401 45.7753 104.637 45.1104C104.873 44.4455 105.204 43.8895 105.631 43.4425C106.055 42.996 106.576 42.6459 107.155 42.4169C107.744 42.1804 108.387 42.0622 109.082 42.0622C109.868 42.0622 110.543 42.1837 111.107 42.4266C111.671 42.6696 112.133 43.005 112.494 43.433C112.854 43.8613 113.123 44.3695 113.3 44.9574C113.477 45.5453 113.566 46.1905 113.566 46.8929V47.7363H106.014C106.014 48.2347 106.083 48.6981 106.22 49.1264C106.358 49.5547 106.555 49.9254 106.81 50.2386C107.066 50.5523 107.393 50.8048 107.764 50.9767C108.144 51.1559 108.583 51.2454 109.082 51.2453C109.934 51.2453 110.556 51.0886 110.95 50.7753C111.343 50.462 111.612 50.037 111.756 49.5003L113.408 49.5012ZM111.855 46.491C111.855 46.0182 111.802 45.59 111.697 45.2065C111.593 44.8229 111.429 44.4937 111.206 44.2188C110.983 43.9442 110.694 43.7302 110.341 43.5766C109.987 43.423 109.561 43.3463 109.062 43.3465C108.158 43.3465 107.453 43.6149 106.948 44.1519C106.444 44.6889 106.145 45.4686 106.053 46.491H111.855Z" fill="#161616"/>
<path d="M115.435 42.3686H117.126V43.9024C117.507 43.3531 117.952 42.9311 118.464 42.6364C118.975 42.3418 119.519 42.1948 120.096 42.1954C120.45 42.1954 120.751 42.221 121 42.2723L120.784 43.8253C120.653 43.8 120.521 43.7774 120.39 43.7575C120.246 43.7375 120.102 43.7279 119.957 43.7288C119.629 43.7311 119.303 43.7862 118.993 43.8918C118.665 44.0006 118.357 44.1827 118.069 44.4382C117.788 44.6729 117.557 44.9601 117.391 45.2829C117.227 45.6026 117.145 45.9733 117.145 46.3949V52.2811H115.434L115.435 42.3686Z" fill="#161616"/>
</svg>
